# xmcd CD database file
#
# Track frame offsets:
#	151
#	11991
#	27847
#	46795
#	59669
#	74926
#	87527
#	99252
#	111635
#	125086
#	137879
#	148639
#	158616
#	171397
#	184974
#	198059
#	209499
#	222073
#	235381
#	248790
#
# Disc length: 3499 seconds
#
# Revision: 1
# Processed by: cddbd v1.5.2PL0 Copyright (c) Steve Scherf et al.
# Submitted via: CDex 1.51
#
DISCID=3a0da914
DTITLE=Various Artist - The years of the Blues - CD1
DYEAR=2001
DGENRE=Blues
TTITLE0=Hard Working Woman - BB King
TTITLE1=Lonesome Day - Muddy Waters
TTITLE2=House Rockin' Boogie - Howlin' Wolf
TTITLE3=Leave My Wife Alone - John Lee Hooker
TTITLE4=House Rent Stomp - Big Bill Broonzy
TTITLE5=The Chill is On - Big Joe Turner
TTITLE6=She's a Mean Woman - BB King
TTITLE7=Dog Me Around - Howlin' Wolf
TTITLE8=Ground Hog Blues - John Lee Hooker
TTITLE9=Mighty Long Time - Sonny Boy Williamson II
TTITLE10=Travelin' Blues - T-Bone Walker
TTITLE11=Crying in the Morning - Eddie "Guitar Slim" Jones
TTITLE12=That's All Right - Jimmy Rogers
TTITLE13=My Daddy - Ed Saar Cooper Terry
TTITLE14=Going Down Slow - Sonny Terry and Brownie McGhee
TTITLE15=My Baby Left Me - Arthur "Big Boy" Crudup
TTITLE16=I Can't Be Satisfied - Muddy Waters
TTITLE17=Third Floor Blues - Jimmy Whiterspoon
TTITLE18=The Honeydripper - Roosevelt Sykes
TTITLE19=Slim's Blues - Memphis Slim
EXTD=Selection\nThe years of the Blues\nA special celebration with B.B. King YEAR: 2001
EXTT0=
EXTT1=
EXTT2=
EXTT3=
EXTT4=
EXTT5=
EXTT6=
EXTT7=
EXTT8=
EXTT9=
EXTT10=
EXTT11=
EXTT12=
EXTT13=
EXTT14=
EXTT15=
EXTT16=
EXTT17=
EXTT18=
EXTT19=
PLAYORDER=
